<svg xmlns="http://www.w3.org/2000/svg" xmlns:xlink="http://www.w3.org/1999/xlink" viewBox="0 0 26 26" fill="#FFFFFF">
  <path d="M13 0C5.832031 0 0 5.832031 0 13C0 20.167969 5.832031 26 13 26C20.167969 26 26 20.167969 26 13C26 5.832031 20.167969 0 13 0 Z M 12 2.25L12 6L9.21875 6C9.359375 5.636719 9.496094 5.289063 9.65625 4.96875C10.363281 3.554688 11.183594 2.65625 12 2.25 Z M 14 2.25C14.816406 2.65625 15.636719 3.554688 16.34375 4.96875C16.503906 5.289063 16.640625 5.636719 16.78125 6L14 6 Z M 8.5 2.96875C8.277344 3.316406 8.066406 3.675781 7.875 4.0625C7.578125 4.660156 7.328125 5.3125 7.09375 6L4.5 6C5.570313 4.703125 6.945313 3.664063 8.5 2.96875 Z M 17.5 2.96875C19.054688 3.664063 20.429688 4.703125 21.5 6L18.90625 6C18.671875 5.3125 18.421875 4.660156 18.125 4.0625C17.933594 3.675781 17.722656 3.316406 17.5 2.96875 Z M 3.1875 8L6.53125 8C6.257813 9.25 6.089844 10.59375 6.03125 12L2.03125 12C2.15625 10.566406 2.566406 9.21875 3.1875 8 Z M 8.59375 8L12 8L12 12L8.03125 12C8.097656 10.566406 8.296875 9.21875 8.59375 8 Z M 14 8L17.40625 8C17.703125 9.21875 17.902344 10.566406 17.96875 12L14 12 Z M 19.46875 8L22.8125 8C23.433594 9.21875 23.84375 10.566406 23.96875 12L19.96875 12C19.910156 10.59375 19.742188 9.25 19.46875 8 Z M 2.0625 14L6.03125 14C6.085938 15.410156 6.257813 16.75 6.53125 18L3.1875 18C2.5625 16.777344 2.191406 15.4375 2.0625 14 Z M 8.03125 14L12 14L12 18L8.59375 18C8.296875 16.78125 8.09375 15.433594 8.03125 14 Z M 14 14L17.96875 14C17.90625 15.433594 17.703125 16.78125 17.40625 18L14 18 Z M 19.96875 14L23.9375 14C23.808594 15.4375 23.4375 16.777344 22.8125 18L19.46875 18C19.742188 16.75 19.914063 15.410156 19.96875 14 Z M 4.5 20L7.09375 20C7.328125 20.6875 7.578125 21.339844 7.875 21.9375C8.066406 22.324219 8.277344 22.683594 8.5 23.03125C6.945313 22.335938 5.570313 21.292969 4.5 20 Z M 9.21875 20L12 20L12 23.75C11.183594 23.34375 10.363281 22.445313 9.65625 21.03125C9.496094 20.710938 9.359375 20.363281 9.21875 20 Z M 14 20L16.78125 20C16.640625 20.363281 16.503906 20.710938 16.34375 21.03125C15.636719 22.445313 14.816406 23.34375 14 23.75 Z M 18.90625 20L21.5 20C20.429688 21.292969 19.054688 22.335938 17.5 23.03125C17.722656 22.683594 17.933594 22.324219 18.125 21.9375C18.421875 21.339844 18.671875 20.6875 18.90625 20Z" fill="#FFFFFF" />
</svg>