<svg xmlns="http://www.w3.org/2000/svg" xmlns:xlink="http://www.w3.org/1999/xlink" viewBox="0 0 16 16" fill="#FFFFFF">
  <path d="M8 3C7.449219 3 7 3.449219 7 4C7 4.550781 7.449219 5 8 5C8.550781 5 9 4.550781 9 4C9 3.449219 8.550781 3 8 3 Z M 8 7C7.449219 7 7 7.449219 7 8C7 8.550781 7.449219 9 8 9C8.550781 9 9 8.550781 9 8C9 7.449219 8.550781 7 8 7 Z M 8 11C7.449219 11 7 11.449219 7 12C7 12.550781 7.449219 13 8 13C8.550781 13 9 12.550781 9 12C9 11.449219 8.550781 11 8 11Z" fill="#FFFFFF" />
</svg>