<svg xmlns="http://www.w3.org/2000/svg" xmlns:xlink="http://www.w3.org/1999/xlink" viewBox="0 0 50 50" fill="#FFFFFF">
  <path d="M31 3C18.875 3 9 12.875 9 25C9 37.125 18.875 47 31 47C34.128906 47 37.109375 46.335938 39.800781 45.15625C40.53125 44.839844 41 44.121094 41 43.324219C41 42.53125 40.53125 41.808594 39.800781 41.492188C33.449219 38.714844 29 32.394531 29 25C29 17.605469 33.449219 11.285156 39.800781 8.507813C40.53125 8.191406 41 7.46875 41 6.675781C41 5.878906 40.53125 5.160156 39.800781 4.84375C37.109375 3.664063 34.128906 3 31 3 Z M 31 7C32.09375 7 33.148438 7.148438 34.1875 7.335938C28.679688 11.335938 25 17.6875 25 25C25 32.3125 28.679688 38.664063 34.1875 42.664063C33.148438 42.851563 32.09375 43 31 43C21.035156 43 13 34.964844 13 25C13 15.035156 21.035156 7 31 7Z" fill="#FFFFFF" />
</svg>