<svg xmlns="http://www.w3.org/2000/svg" xmlns:xlink="http://www.w3.org/1999/xlink" viewBox="0 0 50 50" fill="#FFFFFF">
  <path d="M25 5C13.964844 5 5 13.964844 5 25C4.996094 25.359375 5.183594 25.695313 5.496094 25.878906C5.808594 26.058594 6.191406 26.058594 6.503906 25.878906C6.816406 25.695313 7.003906 25.359375 7 25C7 15.046875 15.046875 7 25 7C31.246094 7 36.726563 10.179688 39.957031 15L33 15C32.640625 14.996094 32.304688 15.183594 32.121094 15.496094C31.941406 15.808594 31.941406 16.191406 32.121094 16.503906C32.304688 16.816406 32.640625 17.003906 33 17L43 17L43 7C43.003906 6.730469 42.898438 6.46875 42.707031 6.277344C42.515625 6.085938 42.253906 5.980469 41.984375 5.984375C41.433594 5.996094 40.992188 6.449219 41 7L41 13.011719C37.347656 8.148438 31.539063 5 25 5 Z M 43.984375 23.984375C43.433594 23.996094 42.992188 24.449219 43 25C43 34.953125 34.953125 43 25 43C18.753906 43 13.269531 39.820313 10.042969 35L17 35C17.359375 35.007813 17.695313 34.816406 17.878906 34.507813C18.058594 34.195313 18.058594 33.808594 17.878906 33.496094C17.695313 33.1875 17.359375 32.996094 17 33L8.445313 33C8.316406 32.976563 8.1875 32.976563 8.058594 33L7 33L7 43C6.996094 43.359375 7.183594 43.695313 7.496094 43.878906C7.808594 44.058594 8.191406 44.058594 8.503906 43.878906C8.816406 43.695313 9.003906 43.359375 9 43L9 36.984375C12.648438 41.847656 18.460938 45 25 45C36.035156 45 45 36.035156 45 25C45.003906 24.730469 44.898438 24.46875 44.707031 24.277344C44.515625 24.085938 44.253906 23.980469 43.984375 23.984375Z" fill="#FFFFFF" />
</svg>